<svg xmlns="http://www.w3.org/2000/svg" xmlns:xlink="http://www.w3.org/1999/xlink" width="90" height="30" viewBox="0 0 90 30">
    <defs>
        <path id="a" d="M0 .17h13.91v16.98H0z"/>
    </defs>
    <g fill="none" fill-rule="evenodd">
        <path fill="#FFF" d="M21.099 21.293h6.107c-.082-1.152-.393-2.014-.932-2.585-.538-.572-1.248-.857-2.128-.857-.838 0-1.528.29-2.066.87-.539.579-.866 1.437-.981 2.572m6.588 1.912H21.1c.008.765.119 1.464.462 2.023.613.996 1.84 1.536 3.079 1.511 1.37-.027 2.3-.529 3.33-1.64.645-.645 1.269-.64 1.784-.32.339.21.512.56.512.906 0 .304-.12.66-.358 1.067-.239.407-.599.798-1.08 1.172-.48.374-1.085.685-1.814.931-.727.247-1.564.37-2.51.37-2.163 0-3.845-.616-5.045-1.85-1.202-1.234-1.802-2.908-1.802-5.022 0-.995.148-1.918.444-2.77a6.108 6.108 0 0 1 1.296-2.19 5.624 5.624 0 0 1 2.097-1.4c.83-.324 1.752-.487 2.763-.487 1.316 0 2.445.278 3.387.833.942.555 1.647 1.273 2.116 2.153.468.88.703 1.777.703 2.69 0 .847-.242 1.396-.728 1.647-.485.25-1.168.376-2.048.376M43.368 24.82c0 .93-.226 1.726-.679 2.388-.452.662-1.12 1.164-2.005 1.506-.884.34-1.96.511-3.226.511-1.209 0-2.245-.184-3.109-.555-.863-.37-1.501-.833-1.912-1.388-.411-.555-.617-1.112-.617-1.671 0-.37.131-.687.395-.95.263-.264.596-.395.999-.395.354 0 .625.086.814.259.19.172.36.394.567.686.396.563 1.209 1.616 3.073 1.61 1.688-.007 2.416-.769 2.416-1.438 0-.625-.223-.846-.67-1.117-.449-.272-1.187-.53-2.215-.778-1.16-.287-2.103-.59-2.831-.906-.728-.317-1.31-.734-1.746-1.253-.436-.517-.654-1.155-.654-1.911 0-.675.202-1.313.604-1.913.404-.6.998-1.08 1.784-1.437.785-.358 1.733-.537 2.843-.537.872 0 1.655.09 2.35.271.695.181 1.275.424 1.74.728.465.305.818.642 1.061 1.012s.364.733.364 1.086c0 .386-.13.703-.389.95-.26.247-.627.37-1.104.37-.346 0-.64-.1-.882-.297-.243-.197-.477-.532-.833-.888-.579-.579-1.53-1.034-2.649-.97-1.421.08-1.793.71-1.78 1.242.008.354.148.644.444.87.297.226.695.413 1.197.561a47.25 47.25 0 0 0 2.072.543c1.045.255 1.899.559 2.56.913.663.353 1.164.77 1.505 1.252.342.481.513 1.03.513 1.647M57.518 25.056c0 .419-.126.867-.376 1.344-.251.477-.636.93-1.148 1.363-.825.698-2.18 1.553-4.459 1.553-2.395 0-3.913-.852-4.997-1.935-1.191-1.19-1.752-2.84-1.752-4.88 0-1.381.267-2.603.802-3.663a5.755 5.755 0 0 1 2.319-2.462c1.012-.58 2.22-.87 3.627-.87.872 0 1.672.128 2.4.383s1.345.584 1.85.987c.506.403.893.833 1.16 1.29.268.456.401.881.401 1.276 0 .403-.15.745-.45 1.024-.3.28-.664.42-1.092.42-.28 0-.512-.073-.697-.216-.185-.144-.393-.377-.623-.697-.697-1.035-1.43-1.674-3.002-1.674-1.528 0-3.356 1.028-3.315 4.153.033 2.51 1.293 3.912 3.118 3.962 1.592.042 2.403-.416 3.26-1.618.25-.35.44-.661.667-.888.48-.48 1.35-.396 1.9.148.294.291.407.646.407 1"/>
        <g transform="translate(3 12.207)">
            <mask id="b" fill="#fff">
                <use xlink:href="#a"/>
            </mask>
            <path fill="#FFF" d="M5.336 2.71H3.382V7.3h1.863c.813 0 1.496-.071 2.05-.211.554-.141.978-.38 1.27-.718.292-.338.438-.803.438-1.395 0-.463-.117-.871-.353-1.224a2.133 2.133 0 0 0-.979-.792c-.395-.167-1.173-.25-2.335-.25m-.77 7.449H3.382v4.93c0 .706-.155 1.226-.466 1.56-.312.334-.718.501-1.22.501-.538 0-.956-.175-1.252-.524C.148 16.277 0 15.764 0 15.09V2.243C0 1.514.163.986.49.66.816.334 1.344.17 2.073.17h4.334c.76 0 1.409.033 1.948.097A4.878 4.878 0 0 1 9.812.66a4.217 4.217 0 0 1 2.306 2.375c.209.542.333 1.589.302 2.195-.108 2.07-.948 3.146-3.07 4.096.6.319 1.36.922 1.848 1.592.643.885 2.04 3.091 2.337 3.629.44.799.531 1.396.07 1.921-.27.307-.78.682-1.588.682-.556 0-.817-.212-1.375-1.026-.187-.272-2.112-3.381-2.112-3.381-.486-.828-1.425-1.953-2.471-2.345-.4-.15-.893-.24-1.493-.24" mask="url(#b)"/>
        </g>
        <path fill="#FFF" d="M67.821 23.176c.005 1.312-.42 2.166-1.632 2.936-.536.34-1.485.607-2.151.607-.625 0-1.228-.123-1.56-.59-.26-.367-.395-1.105-.053-1.552.234-.306.592-.5.931-.625a150.433 150.433 0 0 1 4.465-1.566v.79M85.715 3.377C84.583 1.844 82.843 1 80.815 1c-2.451 0-4.401 1.007-5.684 2.888C73.82 1.95 71.96 1 69.503 1c-2.027 0-3.767.844-4.9 2.377-1.275 1.727-1.594 4.063-.873 6.409.356 1.158 1.231 2.414 2.463 3.536a1.278 1.278 0 0 0 1.722-1.888c-.874-.796-1.525-1.693-1.742-2.4-.473-1.539-.291-3.086.486-4.138.647-.877 1.631-1.34 2.844-1.34 2.23 0 3.559 1.116 4.446 3.732.18.53.68.892 1.242.867a1.278 1.278 0 0 0 1.197-.927c.705-2.47 2.153-3.672 4.428-3.672 1.213 0 2.196.463 2.843 1.34.778 1.052.96 2.6.486 4.139-.852 2.772-4.04 6-7.326 7.522v-3.025c0-.567-.031-1.005-.093-1.314a1.423 1.423 0 0 0-.438-.783c-.345-.32-.732-.481-1.16-.481-.304 0-.579.072-.825.216a1.514 1.514 0 0 0-.568.562 1.877 1.877 0 0 0-.24.795c-.03.308-.044.734-.044 1.277v4.004c-.864.298-1.806.616-2.734.926a4.813 4.813 0 0 0-.356-1.044c-.356-.753-.948-1.31-1.796-1.659-.847-.35-2.01-.525-3.49-.525-1.325 0-2.431.182-3.32.543-.888.362-1.542.823-1.961 1.382-.42.56-.629 1.135-.629 1.727 0 .379.137.689.413.932.276.242.582.407.96.407 1.01 0 1.187-.739 1.495-1.215.309-.477.679-.835 1.11-1.074.432-.238 1.076-.357 1.931-.357 1.846 0 2.4.95 2.454 1.829a718.687 718.687 0 0 0-5.489 2.078c-.813.312-1.79.868-2.36 1.554-.56.672-.982 1.524-.876 2.903.1 1.292 1.145 2.157 1.8 2.498.653.342 1.411.512 2.275.512.946 0 1.8-.158 2.56-.475.761-.316 1.548-.791 2.363-1.425.277.707.527 1.071.82 1.412.304.355.605.529 1.07.529.552 0 1.05-.182 1.375-.466.325-.283.423-.599.423-.944 0-.197-.104-.64-.314-1.326a6.772 6.772 0 0 1-.314-1.98 423.02 423.02 0 0 0 .023-3.177c.847-.282 1.727-.577 2.567-.863v4.212c0 1.045.084 1.88.253 2.505a2.461 2.461 0 0 0 1.067 1.468c.543.353 1.34.53 2.394.53 1.11 0 1.961-.144 2.553-.431.593-.288.888-.704.888-1.247 0-.32-.108-.59-.326-.807-.219-.218-.463-.328-.734-.328-.19 0-.453.036-.79.106-.338.07-.604.104-.802.104-.362 0-.623-.088-.783-.265a1.233 1.233 0 0 1-.296-.691 10.012 10.012 0 0 1-.056-1.215v-5.126l.136-.05c4.332-1.639 8.473-5.718 9.633-9.49.721-2.345.403-4.68-.873-6.408"/>
    </g>
</svg>
